<svg version="1.1" id="Layer_1" xmlns="http://www.w3.org/2000/svg" xmlns:xlink="http://www.w3.org/1999/xlink" x="0px" y="0px"
	 width="100%" viewBox="0 0 940 940" enable-background="new 0 0 940 940" xml:space="preserve">
<path fill="#000000" opacity="1.000000" stroke="none" 
	d="
M462.000000,941.000000 
	C308.000000,941.000000 154.500000,941.000000 1.000000,941.000000 
	C1.000000,627.666687 1.000000,314.333344 1.000000,1.000000 
	C290.000000,1.000000 579.000000,1.000000 868.000000,1.000000 
	C868.000000,314.333344 868.000000,627.666687 868.000000,941.000000 
	C732.833313,941.000000 597.666687,941.000000 462.000000,941.000000 
M98.060120,496.439911 
	C104.540466,502.920959 110.889786,509.542633 117.590858,515.786743 
	C119.323555,517.401245 122.146652,518.637817 124.490982,518.675537 
	C140.151016,518.927673 155.818787,518.677856 171.479965,518.891235 
	C175.981903,518.952576 177.195129,517.220764 177.149338,512.998474 
	C176.977676,497.169647 177.182877,481.336365 176.962265,465.508759 
	C176.931488,463.301086 175.877396,460.557068 174.342911,459.004089 
	C153.495621,437.906097 132.527100,416.926666 111.413742,396.095123 
	C109.760834,394.464233 106.818123,393.389374 104.454445,393.352081 
	C89.127464,393.110565 73.793182,393.353851 58.464993,393.154419 
	C53.680038,393.092194 51.966583,394.840118 52.023754,399.591644 
	C52.208202,414.920227 51.926037,430.255920 52.247242,445.579987 
	C52.305660,448.367004 53.670460,451.781250 55.601994,453.769440 
	C69.418404,467.991058 83.537735,481.918396 98.060120,496.439911 
M225.192978,478.475677 
	C229.747940,487.174988 234.250229,495.902679 238.914139,504.543182 
	C239.621277,505.853271 241.048798,507.665436 242.195419,507.704407 
	C250.278885,507.978851 258.376038,507.850098 267.443207,507.850098 
	C258.638977,493.160797 250.333237,479.303192 241.985611,465.375702 
	C242.949142,464.897827 243.370239,464.594910 243.838776,464.470276 
	C257.604004,460.808807 264.257263,449.142365 263.464294,434.632050 
	C262.655090,419.824890 255.539902,410.493439 240.526489,408.062775 
	C228.626114,406.136078 216.338455,406.531952 204.216019,406.076141 
	C198.274063,405.852692 192.316772,406.037415 186.109024,406.037415 
	C186.109024,440.207886 186.109024,473.783569 186.109024,507.609802 
	C193.463791,507.609802 200.573380,507.609802 208.322281,507.609802 
	C208.322281,500.872650 208.322296,494.249542 208.322296,487.626465 
	C208.322296,480.871552 208.322281,474.116669 208.322281,467.457336 
	C219.045929,466.630493 219.047073,466.629883 223.529312,475.125275 
	C223.994919,476.007751 224.436188,476.903046 225.192978,478.475677 
M663.491150,438.970673 
	C647.284973,432.762573 632.911560,436.927582 623.948975,450.429016 
	C614.151550,465.188049 615.424438,487.256653 626.794983,499.282166 
	C631.762390,504.535614 637.797241,507.732391 644.976013,508.936646 
	C655.700745,510.735870 664.964478,507.985535 673.095520,499.367462 
	C673.449707,502.849762 673.690979,505.221497 673.926208,507.534302 
	C680.441895,507.534302 686.684143,507.534302 692.972290,507.534302 
	C692.972290,471.318848 692.972290,435.430695 692.972290,399.473297 
	C685.811584,399.473297 679.043884,399.473297 671.705078,399.473297 
	C671.705078,407.207550 671.705017,414.665039 671.705017,422.122498 
	C671.705017,429.425049 671.705078,436.727600 671.705078,444.582611 
	C668.485535,442.316803 666.330078,440.799835 663.491150,438.970673 
M430.735016,446.143097 
	C429.023315,445.509338 427.253510,444.997864 425.611237,444.217896 
	C421.386566,442.211426 417.665497,439.671295 418.012939,434.236542 
	C418.374298,428.583374 422.526184,426.430511 427.179474,425.067444 
	C429.217285,424.470520 431.581482,423.859833 433.538696,424.330841 
	C439.044647,425.655701 444.416260,427.538940 450.610596,429.438019 
	C454.629547,425.006836 459.497314,419.639801 464.366058,414.271698 
	C447.955475,399.907501 419.930786,400.091034 404.027008,413.811035 
	C392.149780,424.057373 388.534729,452.024780 411.050568,460.484650 
	C417.269073,462.821075 423.642334,464.764526 429.781982,467.284485 
	C433.252045,468.708740 436.882965,470.413574 439.567963,472.925690 
	C443.961060,477.035919 443.009827,483.398590 437.863312,486.547424 
	C435.659973,487.895508 432.999908,488.747162 430.436340,489.211670 
	C421.082367,490.906494 413.638000,487.030304 407.080109,480.159729 
	C401.761322,486.042938 396.678680,491.664948 391.632599,497.246521 
	C406.481171,513.579285 439.457184,514.865784 455.428223,500.117584 
	C471.124878,485.622803 467.052643,460.282684 447.531128,451.856384 
	C442.359314,449.623993 436.860016,448.150238 430.735016,446.143097 
M753.813904,496.684265 
	C763.034241,506.864044 774.749817,510.409119 788.078979,509.323730 
	C807.774109,507.720032 821.800476,494.151917 822.853760,475.884308 
	C824.008667,455.853699 812.494507,441.077667 792.496216,436.926636 
	C776.176636,433.539185 758.587891,440.505768 750.519104,453.552887 
	C742.574036,466.399872 743.733276,483.780731 753.813904,496.684265 
M366.451355,440.051483 
	C348.025024,431.212524 324.644409,438.213531 315.580231,455.284210 
	C306.263458,472.830597 312.161530,494.457977 328.901886,504.132721 
	C345.730255,513.858398 369.876434,509.823547 379.114105,495.412872 
	C374.359863,491.916473 369.581909,488.402618 364.678131,484.796234 
	C358.647980,491.808716 351.656036,495.226288 342.773163,491.831207 
	C337.486938,489.810791 334.559631,485.701752 332.980499,479.658844 
	C335.688568,479.658844 337.500580,479.658813 339.312592,479.658844 
	C352.472748,479.659149 365.633667,479.724701 378.791870,479.563782 
	C380.184692,479.546753 382.569000,478.427673 382.792786,477.436066 
	C385.706268,464.525604 378.699432,448.280243 366.451355,440.051483 
M582.996521,443.701538 
	C582.992920,453.522156 583.105225,463.344910 582.920654,473.162140 
	C582.858948,476.446899 582.357788,479.805023 581.487244,482.972900 
	C580.333801,487.170410 577.318359,489.590851 572.903503,490.272308 
	C564.775391,491.526917 559.630676,487.539581 559.268921,478.569885 
	C558.806335,467.102783 559.054382,455.606903 558.999634,444.123444 
	C558.990417,442.190948 558.998352,440.258362 558.998352,438.252197 
	C551.418579,438.252197 544.539612,438.252197 537.831726,438.252197 
	C537.831726,454.234039 537.641785,469.852997 537.965942,485.461304 
	C538.046387,489.336304 539.536987,493.263916 540.824341,497.014648 
	C543.362793,504.410400 549.049133,507.976196 556.540405,509.050598 
	C566.998047,510.550385 576.341736,508.713074 583.684692,498.797180 
	C583.899658,502.557343 584.043579,505.073822 584.181213,507.481689 
	C591.273376,507.481689 597.831909,507.481689 604.479675,507.481689 
	C604.479675,484.200867 604.479675,461.308838 604.479675,438.152588 
	C597.282410,438.152588 590.358582,438.152588 582.996460,438.152588 
	C582.996460,439.823212 582.996460,441.295380 582.996521,443.701538 
M485.862061,462.427429 
	C485.871826,471.415436 485.772705,480.405304 485.926117,489.390869 
	C486.047150,496.478821 488.556427,502.362244 495.238586,505.835052 
	C504.510864,510.654022 514.210022,509.947662 523.969849,508.011627 
	C524.851624,507.836731 526.173767,506.667969 526.201904,505.919861 
	C526.397461,500.713348 526.305176,495.496002 526.305176,490.421204 
	C522.437256,490.785278 519.315552,491.393494 516.216553,491.293732 
	C512.046265,491.159607 508.320251,489.321167 508.150818,484.727325 
	C507.791199,474.978302 508.041107,465.206787 508.041107,455.030426 
	C514.136414,455.030426 520.060852,455.030426 525.914062,455.030426 
	C525.914062,449.070282 525.914062,443.538849 525.914062,437.713196 
	C519.688171,437.713196 513.909729,437.713196 507.506378,437.713196 
	C507.506378,430.860626 507.506378,424.307251 507.506378,417.599579 
	C499.992065,417.599579 493.114288,417.599579 485.603577,417.599579 
	C485.603577,424.482300 485.603577,431.032196 485.603577,438.119507 
	C480.753906,438.119507 476.536407,438.119507 472.435883,438.119507 
	C472.435883,444.087433 472.435883,449.471497 472.435883,455.417053 
	C477.017303,455.417053 481.247711,455.417053 485.861908,455.417053 
	C485.861908,457.785522 485.861908,459.592010 485.862061,462.427429 
M276.377686,459.500061 
	C276.377686,475.544220 276.377686,491.588379 276.377686,507.612976 
	C283.999634,507.612976 290.769684,507.612976 297.706390,507.612976 
	C297.706390,484.341370 297.706390,461.334991 297.706390,438.243225 
	C290.486206,438.243225 283.618408,438.243225 276.377777,438.243225 
	C276.377777,445.233734 276.377777,451.866974 276.377686,459.500061 
M710.830933,496.462341 
	C710.830933,500.101257 710.830933,503.740204 710.830933,507.599487 
	C718.155396,507.599487 725.051453,507.599487 732.161804,507.599487 
	C732.161804,484.320679 732.161804,461.321198 732.161804,438.243866 
	C724.893127,438.243866 718.013977,438.243866 710.830994,438.243866 
	C710.830994,457.562592 710.830994,476.518768 710.830933,496.462341 
M137.613861,398.857300 
	C133.410019,392.795929 127.604416,392.179260 122.607658,393.384247 
	C140.511368,411.340820 158.868622,429.752258 176.784210,447.720764 
	C177.880295,442.187775 176.424484,436.973816 171.058929,432.033325 
	C159.690109,421.565094 149.054550,410.300537 137.613861,398.857300 
M71.257782,491.242432 
	C78.790787,498.776398 86.560349,506.092743 93.767441,513.926514 
	C98.042328,518.573120 102.666634,517.235168 106.510757,517.096619 
	C88.422478,499.009735 70.201431,480.790070 52.306614,462.896606 
	C51.379238,467.946686 51.892494,473.106659 57.262196,477.422485 
	C62.163776,481.362152 66.298393,486.256042 71.257782,491.242432 
M52.614834,485.017456 
	C52.398029,494.739594 52.025242,504.464325 52.184254,514.180298 
	C52.201878,515.257263 55.207035,517.092590 56.906666,517.190674 
	C63.198067,517.554077 69.523018,517.336792 75.835358,517.337463 
	C78.664871,517.337769 81.494392,517.337524 84.580307,517.337524 
	C73.705742,506.091309 63.468266,495.503937 52.614834,485.017456 
M147.487122,398.057281 
	C156.870972,407.417297 166.254807,416.777344 175.638641,426.137360 
	C176.054337,425.837372 176.470047,425.537354 176.885742,425.237366 
	C176.885742,415.784241 177.006760,406.327698 176.738220,396.882202 
	C176.703217,395.650513 174.694092,393.467041 173.549362,393.433563 
	C163.990860,393.153900 154.420639,393.274689 143.775345,393.274689 
	C145.328461,395.264557 146.196320,396.376465 147.487122,398.057281 
M275.346954,411.856262 
	C274.001648,418.971680 275.618591,423.473541 280.653259,426.629944 
	C284.779785,429.217010 290.358704,429.057068 294.299194,426.238739 
	C298.676392,423.108185 300.641113,418.051971 299.387878,413.143097 
	C298.134308,408.232910 293.924286,404.271790 288.960846,403.653107 
	C282.732300,402.876740 278.447388,405.777710 275.346954,411.856262 
M717.709473,427.847321 
	C725.944519,429.475189 732.787598,425.415588 733.999146,418.183594 
	C735.176331,411.156830 730.125061,404.437378 723.002869,403.555725 
	C717.390564,402.860962 711.657349,406.528778 709.780212,412.014984 
	C707.663086,418.202545 710.172058,423.643341 717.709473,427.847321 
z"/>
<path fill="#9B005C" opacity="1.000000" stroke="none" 
	d="
M97.810448,496.189575 
	C83.537735,481.918396 69.418404,467.991058 55.601994,453.769440 
	C53.670460,451.781250 52.305660,448.367004 52.247242,445.579987 
	C51.926037,430.255920 52.208202,414.920227 52.023754,399.591644 
	C51.966583,394.840118 53.680038,393.092194 58.464993,393.154419 
	C73.793182,393.353851 89.127464,393.110565 104.454445,393.352081 
	C106.818123,393.389374 109.760834,394.464233 111.413742,396.095123 
	C132.527100,416.926666 153.495621,437.906097 174.342911,459.004089 
	C175.877396,460.557068 176.931488,463.301086 176.962265,465.508759 
	C177.182877,481.336365 176.977676,497.169647 177.149338,512.998474 
	C177.195129,517.220764 175.981903,518.952576 171.479965,518.891235 
	C155.818787,518.677856 140.151016,518.927673 124.490982,518.675537 
	C122.146652,518.637817 119.323555,517.401245 117.590858,515.786743 
	C110.889786,509.542633 104.540466,502.920959 97.810448,496.189575 
z"/>
<path fill="#F9F9F9" opacity="1.000000" stroke="none" 
	d="
M225.040848,478.134033 
	C224.436188,476.903046 223.994919,476.007751 223.529312,475.125275 
	C219.047073,466.629883 219.045929,466.630493 208.322281,467.457336 
	C208.322281,474.116669 208.322296,480.871552 208.322296,487.626465 
	C208.322296,494.249542 208.322281,500.872650 208.322281,507.609802 
	C200.573380,507.609802 193.463791,507.609802 186.109024,507.609802 
	C186.109024,473.783569 186.109024,440.207886 186.109024,406.037415 
	C192.316772,406.037415 198.274063,405.852692 204.216019,406.076141 
	C216.338455,406.531952 228.626114,406.136078 240.526489,408.062775 
	C255.539902,410.493439 262.655090,419.824890 263.464294,434.632050 
	C264.257263,449.142365 257.604004,460.808807 243.838776,464.470276 
	C243.370239,464.594910 242.949142,464.897827 241.985611,465.375702 
	C250.333237,479.303192 258.638977,493.160797 267.443207,507.850098 
	C258.376038,507.850098 250.278885,507.978851 242.195419,507.704407 
	C241.048798,507.665436 239.621277,505.853271 238.914139,504.543182 
	C234.250229,495.902679 229.747940,487.174988 225.040848,478.134033 
M234.591949,446.359619 
	C239.334656,444.364990 240.493607,440.474274 240.179810,435.802490 
	C239.865631,431.125153 237.382858,427.408112 233.022324,426.705078 
	C225.009888,425.413208 216.827179,425.177521 208.260712,424.463654 
	C208.260712,432.320496 208.134720,438.770691 208.388184,445.205933 
	C208.429092,446.244598 210.191895,448.112305 211.102478,448.078552 
	C218.686600,447.797333 226.257507,447.160004 234.591949,446.359619 
z"/>
<path fill="#F9F9F9" opacity="1.000000" stroke="none" 
	d="
M663.832886,439.126770 
	C666.330078,440.799835 668.485535,442.316803 671.705078,444.582611 
	C671.705078,436.727600 671.705017,429.425049 671.705017,422.122498 
	C671.705017,414.665039 671.705078,407.207550 671.705078,399.473297 
	C679.043884,399.473297 685.811584,399.473297 692.972290,399.473297 
	C692.972290,435.430695 692.972290,471.318848 692.972290,507.534302 
	C686.684143,507.534302 680.441895,507.534302 673.926208,507.534302 
	C673.690979,505.221497 673.449707,502.849762 673.095520,499.367462 
	C664.964478,507.985535 655.700745,510.735870 644.976013,508.936646 
	C637.797241,507.732391 631.762390,504.535614 626.794983,499.282166 
	C615.424438,487.256653 614.151550,465.188049 623.948975,450.429016 
	C632.911560,436.927582 647.284973,432.762573 663.832886,439.126770 
M662.154663,456.034729 
	C660.523010,455.748993 658.900818,455.300293 657.258118,455.204010 
	C646.828064,454.592560 639.433716,461.434723 639.104797,471.916931 
	C638.747681,483.296509 645.501953,490.583679 656.357117,490.530487 
	C664.843567,490.488861 670.970459,485.881592 672.840332,478.135529 
	C675.211609,468.312286 671.717712,460.588776 662.154663,456.034729 
z"/>
<path fill="#F8F8F8" opacity="1.000000" stroke="none" 
	d="
M431.123047,446.235626 
	C436.860016,448.150238 442.359314,449.623993 447.531128,451.856384 
	C467.052643,460.282684 471.124878,485.622803 455.428223,500.117584 
	C439.457184,514.865784 406.481171,513.579285 391.632599,497.246521 
	C396.678680,491.664948 401.761322,486.042938 407.080109,480.159729 
	C413.638000,487.030304 421.082367,490.906494 430.436340,489.211670 
	C432.999908,488.747162 435.659973,487.895508 437.863312,486.547424 
	C443.009827,483.398590 443.961060,477.035919 439.567963,472.925690 
	C436.882965,470.413574 433.252045,468.708740 429.781982,467.284485 
	C423.642334,464.764526 417.269073,462.821075 411.050568,460.484650 
	C388.534729,452.024780 392.149780,424.057373 404.027008,413.811035 
	C419.930786,400.091034 447.955475,399.907501 464.366058,414.271698 
	C459.497314,419.639801 454.629547,425.006836 450.610596,429.438019 
	C444.416260,427.538940 439.044647,425.655701 433.538696,424.330841 
	C431.581482,423.859833 429.217285,424.470520 427.179474,425.067444 
	C422.526184,426.430511 418.374298,428.583374 418.012939,434.236542 
	C417.665497,439.671295 421.386566,442.211426 425.611237,444.217896 
	C427.253510,444.997864 429.023315,445.509338 431.123047,446.235626 
z"/>
<path fill="#F8F8F8" opacity="1.000000" stroke="none" 
	d="
M753.586792,496.414185 
	C743.733276,483.780731 742.574036,466.399872 750.519104,453.552887 
	C758.587891,440.505768 776.176636,433.539185 792.496216,436.926636 
	C812.494507,441.077667 824.008667,455.853699 822.853760,475.884308 
	C821.800476,494.151917 807.774109,507.720032 788.078979,509.323730 
	C774.749817,510.409119 763.034241,506.864044 753.586792,496.414185 
M791.643188,456.551361 
	C789.376648,456.090546 787.124268,455.328430 784.841064,455.220490 
	C774.421082,454.727875 767.217834,461.695770 767.018921,472.255157 
	C766.809143,483.386871 773.475281,490.512634 784.119873,490.535217 
	C792.403442,490.552795 798.519470,486.189209 800.611084,478.769135 
	C803.193115,469.609497 800.149841,461.591827 791.643188,456.551361 
z"/>
<path fill="#F6F6F6" opacity="1.000000" stroke="none" 
	d="
M366.778595,440.213898 
	C378.699432,448.280243 385.706268,464.525604 382.792786,477.436066 
	C382.569000,478.427673 380.184692,479.546753 378.791870,479.563782 
	C365.633667,479.724701 352.472748,479.659149 339.312592,479.658844 
	C337.500580,479.658813 335.688568,479.658844 332.980499,479.658844 
	C334.559631,485.701752 337.486938,489.810791 342.773163,491.831207 
	C351.656036,495.226288 358.647980,491.808716 364.678131,484.796234 
	C369.581909,488.402618 374.359863,491.916473 379.114105,495.412872 
	C369.876434,509.823547 345.730255,513.858398 328.901886,504.132721 
	C312.161530,494.457977 306.263458,472.830597 315.580231,455.284210 
	C324.644409,438.213531 348.025024,431.212524 366.778595,440.213898 
M341.591614,465.000793 
	C348.026642,465.000793 354.461700,465.000793 360.877228,465.000793 
	C360.924225,456.797241 355.394501,451.607574 347.479309,451.803528 
	C339.314758,452.005646 333.344513,457.572937 333.716278,465.000946 
	C336.006989,465.000946 338.318115,465.000946 341.591614,465.000793 
z"/>
<path fill="#F6F6F6" opacity="1.000000" stroke="none" 
	d="
M582.996460,443.234528 
	C582.996460,441.295380 582.996460,439.823212 582.996460,438.152588 
	C590.358582,438.152588 597.282410,438.152588 604.479675,438.152588 
	C604.479675,461.308838 604.479675,484.200867 604.479675,507.481689 
	C597.831909,507.481689 591.273376,507.481689 584.181213,507.481689 
	C584.043579,505.073822 583.899658,502.557343 583.684692,498.797180 
	C576.341736,508.713074 566.998047,510.550385 556.540405,509.050598 
	C549.049133,507.976196 543.362793,504.410400 540.824341,497.014648 
	C539.536987,493.263916 538.046387,489.336304 537.965942,485.461304 
	C537.641785,469.852997 537.831726,454.234039 537.831726,438.252197 
	C544.539612,438.252197 551.418579,438.252197 558.998352,438.252197 
	C558.998352,440.258362 558.990417,442.190948 558.999634,444.123444 
	C559.054382,455.606903 558.806335,467.102783 559.268921,478.569885 
	C559.630676,487.539581 564.775391,491.526917 572.903503,490.272308 
	C577.318359,489.590851 580.333801,487.170410 581.487244,482.972900 
	C582.357788,479.805023 582.858948,476.446899 582.920654,473.162140 
	C583.105225,463.344910 582.992920,453.522156 582.996460,443.234528 
z"/>
<path fill="#F6F6F6" opacity="1.000000" stroke="none" 
	d="
M485.862000,461.912964 
	C485.861908,459.592010 485.861908,457.785522 485.861908,455.417053 
	C481.247711,455.417053 477.017303,455.417053 472.435883,455.417053 
	C472.435883,449.471497 472.435883,444.087433 472.435883,438.119507 
	C476.536407,438.119507 480.753906,438.119507 485.603577,438.119507 
	C485.603577,431.032196 485.603577,424.482300 485.603577,417.599579 
	C493.114288,417.599579 499.992065,417.599579 507.506378,417.599579 
	C507.506378,424.307251 507.506378,430.860626 507.506378,437.713196 
	C513.909729,437.713196 519.688171,437.713196 525.914062,437.713196 
	C525.914062,443.538849 525.914062,449.070282 525.914062,455.030426 
	C520.060852,455.030426 514.136414,455.030426 508.041107,455.030426 
	C508.041107,465.206787 507.791199,474.978302 508.150818,484.727325 
	C508.320251,489.321167 512.046265,491.159607 516.216553,491.293732 
	C519.315552,491.393494 522.437256,490.785278 526.305176,490.421204 
	C526.305176,495.496002 526.397461,500.713348 526.201904,505.919861 
	C526.173767,506.667969 524.851624,507.836731 523.969849,508.011627 
	C514.210022,509.947662 504.510864,510.654022 495.238586,505.835052 
	C488.556427,502.362244 486.047150,496.478821 485.926117,489.390869 
	C485.772705,480.405304 485.871826,471.415436 485.862000,461.912964 
z"/>
<path fill="#F4F4F4" opacity="1.000000" stroke="none" 
	d="
M276.377747,459.000122 
	C276.377777,451.866974 276.377777,445.233734 276.377777,438.243225 
	C283.618408,438.243225 290.486206,438.243225 297.706390,438.243225 
	C297.706390,461.334991 297.706390,484.341370 297.706390,507.612976 
	C290.769684,507.612976 283.999634,507.612976 276.377686,507.612976 
	C276.377686,491.588379 276.377686,475.544220 276.377747,459.000122 
z"/>
<path fill="#F4F4F4" opacity="1.000000" stroke="none" 
	d="
M710.830933,495.968658 
	C710.830994,476.518768 710.830994,457.562592 710.830994,438.243866 
	C718.013977,438.243866 724.893127,438.243866 732.161804,438.243866 
	C732.161804,461.321198 732.161804,484.320679 732.161804,507.599487 
	C725.051453,507.599487 718.155396,507.599487 710.830933,507.599487 
	C710.830933,503.740204 710.830933,500.101257 710.830933,495.968658 
z"/>
<path fill="#D21D24" opacity="1.000000" stroke="none" 
	d="
M137.866074,399.109924 
	C149.054550,410.300537 159.690109,421.565094 171.058929,432.033325 
	C176.424484,436.973816 177.880295,442.187775 176.784210,447.720764 
	C158.868622,429.752258 140.511368,411.340820 122.607658,393.384247 
	C127.604416,392.179260 133.410019,392.795929 137.866074,399.109924 
z"/>
<path fill="#DE7E1E" opacity="1.000000" stroke="none" 
	d="
M71.014404,490.985901 
	C66.298393,486.256042 62.163776,481.362152 57.262196,477.422485 
	C51.892494,473.106659 51.379238,467.946686 52.306614,462.896606 
	C70.201431,480.790070 88.422478,499.009735 106.510757,517.096619 
	C102.666634,517.235168 98.042328,518.573120 93.767441,513.926514 
	C86.560349,506.092743 78.790787,498.776398 71.014404,490.985901 
z"/>
<path fill="#DE7E1E" opacity="1.000000" stroke="none" 
	d="
M52.922813,484.967041 
	C63.468266,495.503937 73.705742,506.091309 84.580307,517.337524 
	C81.494392,517.337524 78.664871,517.337769 75.835358,517.337463 
	C69.523018,517.336792 63.198067,517.554077 56.906666,517.190674 
	C55.207035,517.092590 52.201878,515.257263 52.184254,514.180298 
	C52.025242,504.464325 52.398029,494.739594 52.922813,484.967041 
z"/>
<path fill="#D21D24" opacity="1.000000" stroke="none" 
	d="
M147.275665,397.772827 
	C146.196320,396.376465 145.328461,395.264557 143.775345,393.274689 
	C154.420639,393.274689 163.990860,393.153900 173.549362,393.433563 
	C174.694092,393.467041 176.703217,395.650513 176.738220,396.882202 
	C177.006760,406.327698 176.885742,415.784241 176.885742,425.237366 
	C176.470047,425.537354 176.054337,425.837372 175.638641,426.137360 
	C166.254807,416.777344 156.870972,407.417297 147.275665,397.772827 
z"/>
<path fill="#F4F4F4" opacity="1.000000" stroke="none" 
	d="
M275.485840,411.510132 
	C278.447388,405.777710 282.732300,402.876740 288.960846,403.653107 
	C293.924286,404.271790 298.134308,408.232910 299.387878,413.143097 
	C300.641113,418.051971 298.676392,423.108185 294.299194,426.238739 
	C290.358704,429.057068 284.779785,429.217010 280.653259,426.629944 
	C275.618591,423.473541 274.001648,418.971680 275.485840,411.510132 
z"/>
<path fill="#F4F4F4" opacity="1.000000" stroke="none" 
	d="
M717.347046,427.742615 
	C710.172058,423.643341 707.663086,418.202545 709.780212,412.014984 
	C711.657349,406.528778 717.390564,402.860962 723.002869,403.555725 
	C730.125061,404.437378 735.176331,411.156830 733.999146,418.183594 
	C732.787598,425.415588 725.944519,429.475189 717.347046,427.742615 
z"/>
<path fill="#0B0B0B" opacity="1.000000" stroke="none" 
	d="
M234.212189,446.494904 
	C226.257507,447.160004 218.686600,447.797333 211.102478,448.078552 
	C210.191895,448.112305 208.429092,446.244598 208.388184,445.205933 
	C208.134720,438.770691 208.260712,432.320496 208.260712,424.463654 
	C216.827179,425.177521 225.009888,425.413208 233.022324,426.705078 
	C237.382858,427.408112 239.865631,431.125153 240.179810,435.802490 
	C240.493607,440.474274 239.334656,444.364990 234.212189,446.494904 
z"/>
<path fill="#080808" opacity="1.000000" stroke="none" 
	d="
M662.540039,456.126343 
	C671.717712,460.588776 675.211609,468.312286 672.840332,478.135529 
	C670.970459,485.881592 664.843567,490.488861 656.357117,490.530487 
	C645.501953,490.583679 638.747681,483.296509 639.104797,471.916931 
	C639.433716,461.434723 646.828064,454.592560 657.258118,455.204010 
	C658.900818,455.300293 660.523010,455.748993 662.540039,456.126343 
z"/>
<path fill="#080808" opacity="1.000000" stroke="none" 
	d="
M791.981628,456.738556 
	C800.149841,461.591827 803.193115,469.609497 800.611084,478.769135 
	C798.519470,486.189209 792.403442,490.552795 784.119873,490.535217 
	C773.475281,490.512634 766.809143,483.386871 767.018921,472.255157 
	C767.217834,461.695770 774.421082,454.727875 784.841064,455.220490 
	C787.124268,455.328430 789.376648,456.090546 791.981628,456.738556 
z"/>
<path fill="#0B0B0B" opacity="1.000000" stroke="none" 
	d="
M341.110413,465.000854 
	C338.318115,465.000946 336.006989,465.000946 333.716278,465.000946 
	C333.344513,457.572937 339.314758,452.005646 347.479309,451.803528 
	C355.394501,451.607574 360.924225,456.797241 360.877228,465.000793 
	C354.461700,465.000793 348.026642,465.000793 341.110413,465.000854 
z"/>
</svg>